PathFileType	4	(X/Y/Z)	C:\Users\u0145647\OneDrive - KU Leuven\KU Leuven\c3d2osim\CP4\T0\Data\Processed\ViconC3D_CP4_2\CP4_T0_07_gapFilled.trc
DataRate	CameraRate	NumFrames	NumMarkers	Units	OrigDataRate	OrigDataStartFrame	OrigNumFrames
100.000000	100.000000	10	47	mm	100.000000	365	728
Frame#	Time	C7			T10			CLAV			STRN			LSHO			RSHO			RBAK			LASI			RASI			LPSI			RPSI			LLAT			RLAT			LF1			LF2			LF3			LTHI			LKNE			LMEK			RF1			RF2			RF3			RTHI			RKNE			RMEK			LT1			LT2			LT3			LTIB			LANK			LMM			RT1			RT2			RT3			RTIB			RANK			RMM			LHEE			LSTL			LLCA			LTOE			LCM5			RHEE			RSTL			RLCA			RTOE			RCM5
		X1	Y1	Z1	X2	Y2	Z2	X3	Y3	Z3	X4	Y4	Z4	X5	Y5	Z5	X6	Y6	Z6	X7	Y7	Z7	X8	Y8	Z8	X9	Y9	Z9	X10	Y10	Z10	X11	Y11	Z11	X12	Y12	Z12	X13	Y13	Z13	X14	Y14	Z14	X15	Y15	Z15	X16	Y16	Z16	X17	Y17	Z17	X18	Y18	Z18	X19	Y19	Z19	X20	Y20	Z20	X21	Y21	Z21	X22	Y22	Z22	X23	Y23	Z23	X24	Y24	Z24	X25	Y25	Z25	X26	Y26	Z26	X27	Y27	Z27	X28	Y28	Z28	X29	Y29	Z29	X30	Y30	Z30	X31	Y31	Z31	X32	Y32	Z32	X33	Y33	Z33	X34	Y34	Z34	X35	Y35	Z35	X36	Y36	Z36	X37	Y37	Z37	X38	Y38	Z38	X39	Y39	Z39	X40	Y40	Z40	X41	Y41	Z41	X42	Y42	Z42	X43	Y43	Z43	X44	Y44	Z44	X45	Y45	Z45	X46	Y46	Z46	X47	Y47	Z47

365	3.64	592.95	1440.1	-114.55	584.54	1180.6	-141.09	711.54	1366.5	-95.081	752.71	1218.6	-89.792	701.08	1403.9	-316.02	605.75	1385.7	84.686	538.35	1350.4	-4.5689	775.28	927.8	-169.04	690.37	917.06	11.271	594.03	970.49	-184.54	562.77	970.7	-116.28	744.52	996.62	-240.76	620.25	993.31	30.337	813.29	680.72	-240.09	792.34	722	-251.86	783.25	670.08	-252.9	818.58	596.25	-279.45	836.59	479.34	-190.7	NaN	NaN	NaN	617.11	635.37	37.915	638.87	667.65	36.843	576.61	670.77	31.456	625.38	575.52	79.382	632.77	446.9	14.571	NaN	NaN	NaN	779.65	306	-217.18	821.73	343.14	-194.52	776.76	350.7	-218.8	836.65	232.54	-219.41	734.29	74.519	-187.71	742.01	85.137	-99.227	517.14	356.57	44.024	562.48	367.41	22.786	534.53	406.92	43.405	479.88	296.36	87.36	320.35	195.91	46	332.25	215.05	-38.417	680.74	59.347	-144.59	739.16	54.292	-102.6	737.48	46.332	-181.1	858.65	45.548	-138.59	847.1	36.891	-185.87	281.93	241.67	18.911	304.21	195.35	-34.265	303.17	177.27	41.582	354.6	84.69	-32.921	330.82	73.125	17.447
366	3.65	603.84	1442.5	-114.94	594.39	1183	-141.38	722.61	1368.8	-94.945	762.79	1220.6	-89.694	712.65	1406.2	-315.86	615.46	1388.4	84.162	548.63	1353.3	-5.2603	785.01	930.03	-169.96	700.74	919.19	10.533	604.09	972.77	-185.35	572.73	972.76	-116.87	755.3	999.67	-241.4	630.5	995.35	29.626	818.68	681.02	-241.34	798.64	722.55	-253.53	788.81	670.94	-254.05	821.84	596.41	-281.53	838.36	478.9	-192.72	NaN	NaN	NaN	633.32	637.73	38.725	654.52	670.27	37.417	592.11	672.07	32.091	642.74	578.29	80.566	653.04	449.27	16.738	NaN	NaN	NaN	779.79	305.83	-218.53	822.28	342.82	-196.38	777.06	350.53	-220.15	836.6	232.06	-221.06	734.34	74.326	-188.17	742.05	85.363	-99.611	538.28	357.35	44.611	583.64	368.71	23.958	555.4	407.71	44.712	501.14	297.07	88.157	342.96	195.57	46.45	355.03	214.45	-37.834	680.69	59.337	-144.79	739.22	54.314	-102.95	737.32	46.18	-181.39	858.54	45.518	-139.06	847.06	36.677	-186.4	303.72	240.54	18.803	327.28	194.43	-34.024	326.22	176.65	42.056	380.86	85.119	-31.108	357.08	73.593	19.163
367	3.66	614.69	1444.8	-115.32	604.22	1185.5	-141.7	732.88	1370.8	-94.855	772.79	1222.4	-89.543	724.13	1408.4	-315.6	625.23	1391	83.813	558.78	1356	-5.9369	794.52	932.11	-170.97	711.03	921.3	9.7789	613.75	974.88	-186.01	582.71	974.76	-117.48	765.77	1002.4	-241.93	640.62	997.57	29.041	824.08	681.27	-242.95	805.15	723.09	-255.03	793.78	671.59	-255.75	824.75	596.68	-283.38	839.67	478.33	-194.6	NaN	NaN	NaN	649.54	640.16	39.358	669.79	673.29	37.984	606.95	673.64	32.655	659.82	581.29	81.803	673.35	451.94	18.396	NaN	NaN	NaN	779.93	305.64	-219.87	822.68	342.45	-198.1	777.28	350.35	-221.41	836.47	231.64	-222.71	734.11	74.134	-188.5	742.44	85.646	-100.09	559.59	358.65	45.323	604.96	370.51	25.318	575.99	409.27	45.588	522.72	298.34	89.003	365.76	195.45	46.447	378.81	213.36	-37.861	680.64	59.403	-145.12	739.22	54.707	-103.33	737.2	46.034	-181.71	858.39	45.501	-139.47	846.98	36.504	-186.92	326.29	239.12	17.76	351.28	192.92	-34.223	349.93	175.86	41.914	408.3	85.016	-28.487	384.13	73.854	21.293
368	3.67	625.5	1447	-115.61	614.14	1187.7	-142.08	743.23	1372.6	-94.669	782.72	1224.1	-89.414	735.74	1410.5	-315.28	634.89	1393.4	83.316	568.88	1358.6	-6.6204	804	934.08	-172.09	721.19	923.38	8.6337	623.22	976.91	-186.59	592.46	976.49	-117.86	774.17	1004.3	-242.73	650.88	999.78	28.45	829.52	681.35	-244.37	811.47	723.67	-256.33	798.77	672.24	-256.7	827.79	597.02	-284.54	841.03	477.99	-196.37	NaN	NaN	NaN	665.54	642.78	40.104	684.22	676.39	38.767	622.75	675.31	33.029	676.48	584.12	83.077	693.58	454.93	19.994	NaN	NaN	NaN	780.05	305.31	-220.99	823	342.16	-199.65	777.55	350.2	-222.75	836.4	231.2	-224.15	733.97	73.95	-188.89	742.43	85.765	-100.37	580.96	360.76	46.391	626.65	372.84	26.818	596.55	411.65	45.787	544.31	300.47	89.942	389.47	195.22	46.412	403.42	211.8	-38.133	680.64	59.343	-145.15	739.29	54.771	-103.62	737.02	45.884	-181.99	858.21	45.52	-139.96	846.88	36.336	-187.28	349.47	237.52	16.139	376.22	190.91	-34.742	374.14	175.12	41.527	436.73	84.99	-25.337	411.82	74.48	24.147
369	3.68	636.3	1449.1	-115.9	624	1189.8	-142.4	753.67	1374.3	-94.55	792.44	1225.7	-89.354	747.12	1412.4	-314.91	644.45	1395.8	83.009	578.97	1361	-7.4222	814.44	936.57	-173.58	731.71	925.4	7.9189	632.5	978.67	-186.89	602.08	978.22	-118.06	783.22	1006.4	-243.62	661.06	1001.9	27.977	834.92	681.41	-245.64	817.72	724.14	-257.48	804.14	672.8	-257.95	831.01	597.12	-285.88	842.1	477.33	-197.86	NaN	NaN	NaN	681.48	645.3	40.737	700.17	679.17	39.549	637.53	676.69	33.615	693.18	586.87	84.076	714.45	458.38	21.583	NaN	NaN	NaN	780.2	304.96	-222.04	823.34	341.82	-201.04	777.83	349.74	-224.1	836.11	230.89	-225.54	733.83	73.807	-189.24	742.23	85.967	-100.85	602.49	363.21	47.407	648.68	375.68	28.97	616.77	414.53	45.591	566.03	302.65	90.902	413.83	194.84	45.76	428.75	209.96	-38.847	680.57	59.395	-145.33	739.22	54.981	-103.96	736.86	45.776	-182.26	858.02	45.567	-140.36	846.73	36.181	-187.72	373.26	235.52	14.017	401.83	188.72	-35.678	399.11	174.28	41.065	465.78	84.814	-22.176	440.19	75.004	27.063
370	3.69	647.03	1450.9	-116.19	633.77	1191.8	-142.79	763.84	1375.7	-94.351	801.88	1226.9	-89.316	758.54	1414.1	-314.44	653.93	1398	82.687	588.97	1363.1	-8.0747	822.63	937.82	-174.92	742.01	927.14	6.9113	641.5	980.12	-186.96	611.56	979.52	-117.91	791.66	1008.2	-244.19	671.15	1003.7	27.417	840.47	681.53	-246.66	823.82	724.65	-258.49	809.32	673.38	-259.05	834.59	597.26	-286.59	843.48	477.09	-199.34	NaN	NaN	NaN	697.33	647.65	41.415	714.6	682.23	40.443	652.93	678.52	33.839	709.63	589.47	85.015	735.12	461.89	23.03	NaN	NaN	NaN	780.45	304.71	-222.94	823.61	341.56	-202.17	778.25	349.67	-225.17	836.08	230.53	-226.17	733.66	73.679	-189.5	742.24	86.108	-101.19	624.03	365.56	48.074	670.57	378.75	30.653	637.37	417.12	45.364	587.66	305.12	91.755	438.68	194.39	45.077	454.95	207.71	-39.639	680.4	59.467	-145.51	739.18	55.166	-104.18	736.74	45.654	-182.56	857.82	45.611	-140.82	846.59	35.998	-188.1	397.86	233.18	11.561	428.32	185.72	-36.717	424.73	173.09	40.342	495.52	84.579	-18.575	469.25	75.415	30.157
371	3.7	657.74	1452.5	-116.42	643.49	1193.6	-143.07	773.92	1376.9	-94.167	811.64	1228.1	-89.422	769.84	1415.7	-314	663.5	1399.9	82.314	599.01	1365.1	-8.7697	831.68	939.37	-176.57	752.29	928.68	5.8776	650.36	981.26	-186.81	620.82	980.57	-117.55	799.68	1009.8	-245.46	681.17	1005.3	27.094	845.94	681.66	-247.63	829.97	725.06	-259.36	814.56	674.06	-259.8	838.56	597.94	-287.92	844.76	476.78	-200.51	NaN	NaN	NaN	712.79	649.83	42.074	729.14	685.22	41.347	667.57	679.19	34.085	725.8	591.81	85.693	755.72	465.46	24.217	NaN	NaN	NaN	780.62	304.65	-223.82	823.87	341.34	-203.21	778.55	349.55	-226.12	835.96	230.31	-227.37	733.53	73.662	-189.78	742.21	86.212	-101.49	645.9	367.71	48.605	692.62	381.43	31.847	658.17	419.39	45.224	609.64	307.37	92.405	463.91	193.65	44.034	481.46	205.37	-40.728	680.27	59.468	-145.68	739.11	55.339	-104.42	736.62	45.591	-182.73	857.63	45.691	-141.28	846.44	35.874	-188.42	423.14	230.15	9.0538	455.34	182.64	-37.81	450.89	171.68	39.365	525.79	84.09	-15.036	498.78	75.755	33.185
372	3.71	668.37	1453.9	-116.6	653.16	1195.1	-143.3	784.04	1377.9	-93.981	821.3	1228.9	-89.363	781.05	1417	-313.59	673.15	1401.4	82.069	609.02	1366.8	-9.29	840.84	940.88	-178.23	762.72	929.84	4.9469	659.06	982.05	-186.45	630.01	981.22	-117.02	807.84	1011.2	-246.48	691.37	1006.3	26.707	851.51	681.71	-248.3	836.3	725.44	-260.12	819.84	674.67	-260.07	842.56	598.37	-288.71	846.09	476.5	-201.74	NaN	NaN	NaN	728.18	651.9	42.705	744.62	687.18	42.029	683.2	680.6	34.072	741.96	594.14	86.338	776.34	469.09	25.334	NaN	NaN	NaN	780.76	304.55	-224.65	824.3	341.09	-204.22	778.77	349.61	-226.96	835.94	229.97	-228.12	733.39	73.597	-189.99	742.14	86.339	-101.75	668.22	369.6	49.021	714.88	383.91	32.792	679.4	421.4	45.041	632.3	308.89	92.84	490.22	191.84	43.165	508.75	202.66	-41.72	680.23	59.492	-145.72	739.05	55.456	-104.56	736.4	45.592	-182.87	857.41	45.654	-141.53	846.31	35.791	-188.68	448.64	226.98	6.7204	483.08	179.29	-38.785	477.78	169.63	38.48	556.38	83.624	-12.388	529.01	75.895	35.767
373	3.72	678.93	1455.1	-116.78	662.63	1196.4	-143.49	794.19	1378.7	-93.724	830.96	1229.5	-89.455	792.22	1418	-313.12	682.79	1402.7	81.855	619	1368.3	-9.7626	849.65	942.17	-179.82	773.19	930.83	4.0263	667.63	982.57	-186.01	639.17	981.5	-116.39	815.57	1012.4	-247.46	701.48	1007.1	26.516	857.14	681.68	-248.94	842.61	725.81	-260.7	825.31	675.18	-260.7	846.79	598.54	-289.34	847.5	476.1	-202.87	NaN	NaN	NaN	743.52	653.77	43.235	758.05	689.39	42.491	697.39	680.93	34.147	758.02	596.21	86.997	796.96	472.62	26.235	NaN	NaN	NaN	781.04	304.4	-225.32	824.86	340.89	-205.19	779.16	349.5	-227.59	835.95	229.68	-229	733.23	73.429	-190.12	741.89	86.454	-102.3	690.97	371.03	48.975	737.55	386.11	33.473	700.97	422.99	44.929	655.59	309.87	92.992	516.99	189.71	42.208	536.43	199.66	-42.472	680.15	59.551	-145.82	739.04	55.556	-104.7	736.28	45.546	-183.03	857.27	45.673	-141.82	846.2	35.671	-188.89	475	223.09	4.6594	511.23	175.6	-39.587	505.44	166.99	37.759	587.51	82.951	-10.234	559.76	75.768	38.255
374	3.73	689.48	1455.9	-116.92	672.14	1197.4	-143.52	804.3	1379.2	-93.598	840.64	1229.8	-89.467	803.18	1418.7	-312.64	692.53	1403.7	81.62	628.97	1369.5	-10.23	858.61	943.22	-181.28	783.61	931.58	3.2675	676.28	982.83	-185.48	648.27	981.53	-115.76	823.51	1013.3	-248.22	711.61	1007.4	26.364	862.89	681.28	-249.83	848.62	725.88	-261.56	830.75	675.44	-261.09	851.01	598.57	-290.05	848.98	475.65	-203.9	NaN	NaN	NaN	758.3	655.37	44.055	772.43	691.37	43.288	712.22	681.41	33.926	774.1	597.88	87.582	817.67	476.05	26.895	NaN	NaN	NaN	781.48	304.3	-226.04	825.46	340.7	-206.11	779.72	349.44	-228.3	836.06	229.32	-230.06	733.11	73.343	-190.33	742.15	86.541	-102.2	713.82	372.28	49.183	760.35	388.24	33.867	722.73	424.35	44.756	679.55	310.43	93.075	544.7	186.91	41.255	564.48	196.36	-43.306	680.1	59.603	-145.81	738.86	55.704	-105.08	736.08	45.443	-183.19	857.16	45.694	-142.09	846.1	35.557	-189.13	502.22	218.42	2.7355	540.1	171.97	-40.545	533.2	164.14	37.318	619.19	82.163	-8.4866	591.51	75.134	39.943
